<?xml version="1.0" encoding="UTF-8" standalone="no"?>
<!-- Created with Inkscape (http://www.inkscape.org/) -->

<svg
   xmlns:dc="http://purl.org/dc/elements/1.1/"
   xmlns:cc="http://creativecommons.org/ns#"
   xmlns:rdf="http://www.w3.org/1999/02/22-rdf-syntax-ns#"
   xmlns:svg="http://www.w3.org/2000/svg"
   xmlns="http://www.w3.org/2000/svg"
   xmlns:sodipodi="http://sodipodi.sourceforge.net/DTD/sodipodi-0.dtd"
   xmlns:inkscape="http://www.inkscape.org/namespaces/inkscape"
   width="297mm"
   height="210mm"
   viewBox="0 0 297 210"
   version="1.1"
   id="svg8"
   inkscape:version="0.92.4 (5da689c313, 2019-01-14)"
   sodipodi:docname="doubleblind.svg">
  <defs
     id="defs2" />
  <sodipodi:namedview
     id="base"
     pagecolor="#ffffff"
     bordercolor="#666666"
     borderopacity="1.0"
     inkscape:pageopacity="0"
     inkscape:pageshadow="2"
     inkscape:zoom="1.4352121"
     inkscape:cx="359.42879"
     inkscape:cy="443.08926"
     inkscape:document-units="mm"
     inkscape:current-layer="g3723"
     showgrid="false"
     inkscape:window-width="1920"
     inkscape:window-height="991"
     inkscape:window-x="-9"
     inkscape:window-y="-9"
     inkscape:window-maximized="1"
     inkscape:pagecheckerboard="true" />
  <metadata
     id="metadata5">
    <rdf:RDF>
      <cc:Work
         rdf:about="">
        <dc:format>image/svg+xml</dc:format>
        <dc:type
           rdf:resource="http://purl.org/dc/dcmitype/StillImage" />
        <dc:title></dc:title>
      </cc:Work>
    </rdf:RDF>
  </metadata>
  <g
     inkscape:label="Layer 1"
     inkscape:groupmode="layer"
     id="layer1"
     transform="translate(0,-87)">
    <g
       transform="matrix(0.35277777,0,0,-0.35277777,-231.46483,524.86115)"
       inkscape:label="ink_ext_XXXXXX"
       id="g3721">
      <g
         transform="scale(0.1)"
         id="g3723">
        <path
           style="fill:#008cff;fill-opacity:1;fill-rule:nonzero;stroke:none;stroke-width:0.15999998"
           d="m 11530.816,10595.479 -66.562,-79.072 -19.951,-23.672 h 49.218 c 0,0 0,-0.02 0,-0.02 h 297.056 v -42.129 -0.03 h -256.597 v 0.03 l -89.677,-100.005 h 85.883 v -0.01 -0.132 h 260.391 v -42.129 -0.01 h -256.597 v 0.01 h -3.164 v -0.01 -0.337 l -86.513,-99.799 h 86.513 v -0.01 h 259.761 v -42.114 -0.02 h -193.184 v 0.02 0.132 0.01 h -63.413 -3.164 l -0.146,-0.146 -86.367,-100.196 h 86.513 v -0.03 h 3.164 256.597 v -42.129 -0.01 h -193.184 v 0.01 0.689 0.03 h -63.413 -3.164 l -0.63,-0.703 -85.81,-100.137 -0.07,-0.07 h 86.513 v -0.03 h 66.577 v 0.03 0.06 h 193.184 v -42.128 -0.03 h -193.184 v 0.03 0.131 0.02 h -63.413 -3.164 l -0.132,-0.146 -86.381,-100.064 h 86.513 v -0.102 h 259.761 v -42.1001 -0.015 h -256.597 v 0.015 h -3.164 v -0.015 -0.2051 h -1.538 l -86.528,-99.8438 h 88.066 v -0.1025 h 259.761 v -42.1142 -0.015 h -256.597 -3.164 v -0.1465 l -86.44,-99.9902 -0.07,-0.073 h 86.513 3.164 63.413 v 0.073 h 193.184 v -42.1436 h -256.597 -3.164 v -0.3223 l -86.513,-99.7998 v -0.015 h 86.513 3.164 256.597 v -42.1289 -0.015 h -256.597 v 0.015 h -3.164 v -0.015 -0.1318 l -86.513,-103.0078 h 89.677 63.413 v 0.1318 h 193.178 V 9092.476 h -4.424 c -8.247,0 -14.927,-6.7015 -14.927,-14.9414 v -91.7285 c 0,-8.2401 6.68,-14.9268 14.927,-14.9268 h 39.624 c 8.24,0 14.927,6.6867 14.927,14.9268 v 91.7285 c 0,8.2399 -6.687,14.9414 -14.927,14.9414 h -7.104 l 1.831,299.8242 457.734,0.5713 c -0.02,-0.016 -0.02,-0.013 -0.02,-0.029 -0.224,-0.208 -0.495,-0.4273 -0.703,-0.5713 h 301.743 c 4.848,4.016 9.629,8.17 14.253,12.3779 10.816,9.7601 21.283,19.7972 31.187,30.1172 h -133.286 v 0.029 0.2051 h -675.352 v 102.4512 l 584.356,0.5712 c 0,-0.016 -0.01,-0.015 -0.03,-0.015 -0.06,-0.208 -0.119,-0.3486 -0.263,-0.5566 h 304.145 c 8.416,13.76 16.281,27.8578 23.657,42.4658 h -236.513 v 0.029 0.2051 h -675.352 v 102.4512 l 643.052,0.5127 v -0.044 c 0,-0.208 -0.08,-0.3247 -0.146,-0.4687 h 309.902 c 4.352,13.904 8.205,28.0712 11.645,42.4072 h -289.101 v 0.015 0.2051 h -675.352 v 102.4514 c 0,0 667.55,0.128 667.486,0 v 0.01 h 313.901 c 1.408,13.968 2.472,28.144 3.032,42.48 l -984.419,0.22 v 102.451 h 983.218 c -0.976,14.384 -2.386,28.518 -4.145,42.422 l -979.073,0.278 v 102.378 h 958.638 c -3.936,14.48 -8.427,28.591 -13.403,42.495 l -945.235,0.22 v 102.451 c 0,0 586.181,0.208 586.245,0 h 311.089 c -8.144,13.904 -17.003,27.306 -26.411,40.298 l -866.704,2.402 h -2.388 v 2.535 l -1.831,97.514 h 2.608 v 0.03 h 1.611 35.112 429.405 c 0,-0.02 0.01,-0.02 0.01,-0.03 h 206.616 v 0.03 0.19 h 99.639 c -2.672,2.304 -5.341,4.504 -8.013,6.68 -72.816,58.848 -163.114,103.998 -270.922,135.454 -107.855,31.536 -233.837,47.256 -378.077,47.256 h -336.665 v 0.03 h -63.413 z m 430.547,-84.009 h 16.787 c 75.632,0 144.592,-14.396 206.88,-43.052 13.472,-6.24 26.583,-12.98 39.287,-20.42 h -368.921 -37.192 l -0.308,2.579 h -1.831 v 0.01 h 1.831 l -1.831,47.534 c 0.56,0.06 1.207,0.14 1.831,0.22 0.848,0.06 1.76,0.208 2.608,0.352 9.328,1.12 19.16,2.59 29.56,4.35 15.376,2.816 32.579,4.906 51.475,6.314 18.88,1.408 38.832,2.109 59.824,2.109 z m -142.69,-1118.5839 h 1.611 v -0.5859 h -1.611 z m 36.723,-103.2568 v -80.332 h 133.286 c 131.6,0 248.172,17.1385 349.659,51.4746 25.84,8.704 50.618,18.3134 74.282,28.8574 z"
           id="path3729"
           inkscape:connector-curvature="0"
           inkscape:export-xdpi="299.57016"
           inkscape:export-ydpi="299.57016" />
        <path
           style="font-style:normal;font-variant:normal;font-weight:bold;font-stretch:normal;font-size:96.29629517px;line-height:1.25;font-family:'Britannic Bold';-inkscape-font-specification:'Britannic Bold, Bold';letter-spacing:0px;word-spacing:0px;fill:#008cff;fill-opacity:1;stroke:none;stroke-width:5.40000057"
           d="m 10702.545,9032.7221 c -46.718,-3.5547 -77.606,-5.332 -92.672,-5.332 V 8680.808 h 23.11 l 22.851,42.4101 c 24.037,-31.9921 53.059,-47.9882 87.082,-47.9882 72.11,0 108.164,47.3919 108.164,142.1836 0,83.9583 -30.291,125.9414 -90.89,125.9414 -21.159,0 -40.379,-11.2604 -57.645,-33.7735 z m 1732.149,0 c -33.854,-3.5547 -64.742,-5.332 -92.672,-5.332 v -115.2657 c -14.219,21.1589 -33.35,31.7344 -57.387,31.7344 -60.937,0 -91.406,-45.4492 -91.406,-136.3477 0,-88.3593 28.78,-132.539 86.332,-132.539 26.068,0 46.888,9.306 62.461,27.9258 v -22.0899 h 92.672 z m -1451.836,-0.2461 c -36.224,-3.3854 -67.112,-5.0859 -92.672,-5.0859 V 8680.808 h 92.672 z m 730.242,0 c -36.224,-3.3854 -67.124,-5.0859 -92.684,-5.0859 V 8680.808 h 92.684 z m -2016.2696,-5.0859 V 8680.808 h 138.1173 c 105.7943,0 158.6953,57.6367 158.6953,172.9101 0,115.7813 -51.035,173.672 -153.1055,173.672 z m 1601.3786,0 V 8680.808 h 171.387 c 77.695,0 116.543,30.7227 116.543,92.168 0,49.7656 -28.857,80.4114 -86.578,91.9219 47.904,11.3411 71.859,37.151 71.859,77.4375 0,56.7057 -39.698,85.0547 -119.086,85.0547 z m -1500.8316,-28.6875 h 26.4023 c 24.375,0 41.1328,-10.4102 50.2734,-31.2305 9.3099,-20.8203 13.9688,-58.5638 13.9688,-113.2383 0,-54.6745 -4.6589,-92.5065 -13.9688,-113.4961 -9.3099,-20.8203 -26.0677,-31.2305 -50.2734,-31.2305 h -26.4023 z m 1601.3786,0 h 28.442 c 30.299,0 45.445,-19.5509 45.445,-58.6524 0,-42.3177 -14.296,-63.4805 -42.902,-63.4805 h -30.985 z m -255.422,-54.8438 c -35.377,0 -64.411,-13.2031 -87.093,-39.6094 -22.683,-26.4062 -34.02,-60.2643 -34.02,-101.5664 0,-85.1432 42.656,-127.7109 127.969,-127.7109 65.846,0 100.708,29.5416 104.601,88.6172 l -37.324,10.9101 c 0.339,-6.6015 0.516,-12.4414 0.516,-17.5195 0,-37.9167 -15.919,-56.8711 -47.742,-56.8711 -34.024,0 -51.036,33.5156 -51.036,100.5468 h 135.083 c 0,95.4688 -36.982,143.2032 -110.954,143.2032 z m 860.485,-0.2578 c -29.961,-4.2318 -60.849,-6.3399 -92.672,-6.3399 V 8680.808 h 92.672 v 140.1563 c 0,20.651 3.974,38.513 11.929,53.5781 7.956,15.2344 17.351,22.8515 28.184,22.8515 10.664,0 15.996,-9.5598 15.996,-28.6875 V 8680.808 h 92.684 v 197.0391 c 0,43.6718 -21.505,65.5078 -64.5,65.5078 -33.177,0 -61.272,-15.9193 -84.293,-47.7422 z m -1854.785,-0.2461 c -84.805,0 -127.207,-44.6875 -127.207,-134.0625 0,-89.375 42.402,-134.0625 127.207,-134.0625 84.635,0 126.949,44.6875 126.949,134.0625 0,89.375 -42.314,134.0625 -126.949,134.0625 z m 259.242,0 c -30.638,-3.0469 -61.538,-5.2552 -92.684,-6.6094 v -194.7422 c 0,-44.0104 22.598,-66.0117 67.793,-66.0117 33.516,0 60.938,15.2344 82.266,45.7031 v -40.8867 h 92.683 v 262.5469 c -30.807,-3.0469 -61.707,-5.2552 -92.683,-6.6094 v -128.9766 c 0,-59.5833 -13.876,-89.3788 -41.637,-89.3788 -10.495,0 -15.738,8.6328 -15.738,25.8984 z m 1439.754,-1.2422 c -29.079,-3.6732 -56.68,-5.6133 -82.629,-5.6133 V 8680.808 h 92.672 v 261.3047 z m -1699.254,-21.3633 c 20.651,0 30.984,-37.1471 30.984,-111.457 0,-74.3099 -10.333,-111.4688 -30.984,-111.4688 -20.482,0 -30.715,37.1589 -30.715,111.4688 0,74.3099 10.233,111.457 30.715,111.457 z m 998.613,-2.0273 c 17.943,0 26.918,-29.7956 26.918,-89.379 h -55.348 l 1.008,23.1095 c 2.031,44.1796 11.172,66.2695 27.422,66.2695 z m 1167.211,-12.1875 c 15.404,0 24.456,-14.1303 27.164,-42.3985 l 2.039,-42.6562 -1.277,-62.461 c 0,-31.1458 -8.544,-46.7226 -25.641,-46.7226 -17.604,0 -26.402,15.8307 -26.402,47.4843 l -1.02,49.5118 1.782,54.3281 c 0,28.6068 7.782,42.9141 23.355,42.9141 z m -1583.109,-0.504 c 14.049,0 22.428,-13.6341 25.136,-40.8867 l 1.782,-35.2851 -1.524,-62.7187 c 0,-36.3933 -8.721,-54.586 -26.156,-54.586 -19.974,0 -29.953,34.862 -29.953,104.6015 0,59.2449 10.233,88.875 30.715,88.875 z m 667.265,-58.1484 h 26.918 c 38.763,0 58.149,-24.6289 58.149,-73.8867 0,-42.9948 -18.789,-64.4883 -56.368,-64.4883 h -28.699 z"
           id="flowRoot3739"
           inkscape:connector-curvature="0"
           inkscape:export-xdpi="299.57016"
           inkscape:export-ydpi="299.57016" />
        <flowRoot
           xml:space="preserve"
           id="flowRoot3739-0"
           style="font-style:normal;font-variant:normal;font-weight:bold;font-stretch:normal;font-size:35.55555344px;line-height:1.25;font-family:'Britannic Bold';-inkscape-font-specification:'Britannic Bold, Bold';letter-spacing:0px;word-spacing:0px;fill:#008cff;fill-opacity:1;stroke:none;"
           transform="matrix(6.7500002,0,0,-6.7500002,7460.8173,17879.859)"
           inkscape:export-xdpi="299.57016"
           inkscape:export-ydpi="299.57016"><flowRegion
             id="flowRegion3741-0"
             style="font-style:normal;font-variant:normal;font-weight:bold;font-stretch:normal;font-family:'Britannic Bold';-inkscape-font-specification:'Britannic Bold, Bold';fill:#008cff;fill-opacity:1;"><rect
               id="rect3743-9"
               width="2574.6096"
               height="485.58453"
               x="-677.79504"
               y="1365.3119"
               style="font-style:normal;font-variant:normal;font-weight:bold;font-stretch:normal;font-family:'Britannic Bold';-inkscape-font-specification:'Britannic Bold, Bold';fill:#008cff;fill-opacity:1;" /></flowRegion><flowPara
             id="flowPara3745-8"
             style="font-style:normal;font-variant:normal;font-weight:bold;font-stretch:normal;font-family:'Britannic Bold';-inkscape-font-specification:'Britannic Bold, Bold';text-align:center;writing-mode:lr-tb;text-anchor:middle;fill:#008cff;fill-opacity:1;">Unbiased data analysis</flowPara></flowRoot>      </g>
    </g>
  </g>
</svg>
